<svg preserveAspectRatio="none" width="100%" height="100%" overflow="visible" style="display: block;" viewBox="0 0 142 33" fill="none" xmlns="http://www.w3.org/2000/svg">
<g id="ss8653036142_1">
<g id="Vector">
</g>
<path id="Vector_2" d="M20.859 22.537V30.585H12.034C5.388 30.585 0 25.18 0 18.512V0H8.023V18.512C8.023 20.735 9.819 22.537 12.034 22.537H20.859ZM36.102 8.049C32.114 8.049 28.881 11.292 28.881 15.293C28.881 19.293 32.114 22.537 36.102 22.537C40.089 22.537 43.322 19.293 43.322 15.293C43.322 11.292 40.089 8.049 36.102 8.049ZM20.859 15.293C20.859 6.847 27.684 0 36.102 0C44.52 0 51.345 6.847 51.345 15.293C51.345 23.738 44.52 30.585 36.102 30.585C27.684 30.585 20.859 23.738 20.859 15.293ZM122.746 8.049C118.758 8.049 115.525 11.292 115.525 15.293C115.525 19.293 118.758 22.537 122.746 22.537C126.733 22.537 129.966 19.293 129.966 15.293C129.966 11.292 126.733 8.049 122.746 8.049ZM107.503 15.293C107.503 6.847 114.328 0 122.746 0C131.164 0 137.989 6.847 137.989 15.293C137.989 23.738 131.164 30.585 122.746 30.585C114.328 30.585 107.503 23.738 107.503 15.293ZM90.655 0C99.073 0 105.898 6.847 105.898 15.293V16.308C105.898 18.816 105.283 21.286 104.108 23.499L99.48 32.195L95.191 29.896C93.759 30.344 92.235 30.585 90.655 30.585H68.192C59.774 30.585 52.949 23.738 52.949 15.293C52.949 6.847 59.774 0 68.192 0H90.655ZM97.876 15.293C97.876 11.292 94.643 8.049 90.655 8.049H68.192C64.204 8.049 60.972 11.292 60.972 15.293C60.972 19.293 64.204 22.537 68.192 22.537H90.655C94.622 22.538 97.846 19.328 97.876 15.349V15.293Z" fill="var(--fill-0, white)"/>
<path id="Vector_3" d="M141.198 2.012C141.219 2.744 140.841 3.43 140.212 3.802C139.584 4.175 138.803 4.175 138.174 3.803C137.545 3.431 137.168 2.745 137.188 2.013C137.219 0.924 138.107 0.058 139.193 0.057C140.278 0.057 141.167 0.923 141.198 2.012Z" fill="var(--fill-0, white)"/>
</g>
</svg>
