<svg preserveAspectRatio="none" width="100%" height="100%" overflow="visible" style="display: block;" viewBox="0 0 98 38" fill="none" xmlns="http://www.w3.org/2000/svg">
<g id="ss10601974315_1">
<g id="Vector">
</g>
<path id="Vector_2" d="M23.202 1.18912e-06C19.385 1.18912e-06 15.723 1.522 13.024 4.232L4.216 13.076C1.517 15.785 0.001 19.459 0 23.291C0 31.274 6.444 37.742 14.393 37.742C18.21 37.742 21.871 36.22 24.571 33.51L30.664 27.393L48.417 9.57C50.107 7.872 52.555 7.178 54.88 7.737C57.205 8.295 59.074 10.027 59.815 12.309L65.418 6.684C62.776 2.519 58.197 -0.00199881 53.278 1.18912e-06C49.461 1.18912e-06 45.799 1.522 43.1 4.232L19.254 28.173C16.569 30.868 12.217 30.868 9.532 28.172C6.848 25.477 6.848 21.108 9.533 18.413L18.341 9.569C20.031 7.871 22.479 7.177 24.804 7.736C27.129 8.295 28.998 10.027 29.739 12.309L35.342 6.685C32.7 2.52 28.121 -0.00199881 23.202 1.18912e-06Z" fill="var(--fill-0, white)"/>
<path id="Vector_3" d="M49.33 28.172C47.64 29.87 45.193 30.564 42.868 30.006C40.542 29.447 38.673 27.716 37.932 25.434L32.33 31.058C34.972 35.223 39.55 37.744 44.469 37.742C48.286 37.742 51.947 36.22 54.647 33.51L78.493 9.569C81.178 6.874 85.53 6.874 88.215 9.569C90.899 12.265 90.899 16.634 88.214 19.329L79.406 28.173C77.715 29.871 75.268 30.565 72.943 30.006C70.617 29.447 68.749 27.715 68.008 25.433L62.405 31.058C65.047 35.223 69.626 37.745 74.544 37.742C78.362 37.742 82.023 36.22 84.723 33.51L93.531 24.666C96.23 21.956 97.746 18.282 97.747 14.45C97.747 6.468 91.303 0 83.354 0C79.537 0 75.875 1.522 73.176 4.232L49.33 28.172Z" fill="var(--fill-0, white)"/>
</g>
</svg>
