<svg preserveAspectRatio="none" width="100%" height="100%" overflow="visible" style="display: block;" viewBox="0 0 170 41" fill="none" xmlns="http://www.w3.org/2000/svg">
<g id="ss11694767472_1">
<g id="Vector">
</g>
<path id="Vector_2" d="M51.278 29.323H63.23V25.723H55.526V12.163H51.278V29.323ZM70.31 26.923C68.607 26.923 67.719 25.435 67.719 23.203C67.719 20.971 68.607 19.459 70.311 19.459C72.015 19.459 72.927 20.971 72.927 23.203C72.927 25.435 72.014 26.923 70.31 26.923ZM70.335 29.707C74.295 29.707 76.887 26.899 76.887 23.203C76.887 19.507 74.295 16.699 70.335 16.699C66.399 16.699 63.759 19.507 63.759 23.203C63.759 26.899 66.399 29.707 70.335 29.707ZM83.741 33.571C85.565 33.571 87.173 33.163 88.253 32.203C89.237 31.315 89.885 29.971 89.885 28.123V17.035H86.141V18.355H86.093C85.373 17.323 84.269 16.675 82.637 16.675C79.589 16.675 77.477 19.219 77.477 22.819C77.477 26.587 80.045 28.651 82.805 28.651C84.293 28.651 85.229 28.051 85.949 27.235H86.045V28.459C86.045 29.947 85.349 30.811 83.693 30.811C82.397 30.811 81.749 30.259 81.533 29.611H77.741C78.125 32.179 80.357 33.571 83.741 33.571ZM83.717 25.747C82.253 25.747 81.293 24.547 81.293 22.699C81.293 20.827 82.253 19.627 83.717 19.627C85.349 19.627 86.213 21.019 86.213 22.675C86.213 24.403 85.421 25.747 83.717 25.747ZM97.583 26.923C95.879 26.923 94.991 25.435 94.991 23.203C94.991 20.971 95.879 19.459 97.583 19.459C99.287 19.459 100.199 20.971 100.199 23.203C100.199 25.435 99.287 26.923 97.583 26.923ZM97.607 29.707C101.567 29.707 104.159 26.899 104.159 23.203C104.159 19.507 101.567 16.699 97.607 16.699C93.671 16.699 91.031 19.507 91.031 23.203C91.031 26.899 93.671 29.707 97.607 29.707ZM105.302 29.323H109.214V17.035H105.302V29.323ZM105.302 15.331H109.214V12.163H105.302V15.331ZM110.911 33.38H114.823V28.05H114.871C115.639 29.082 116.767 29.706 118.351 29.706C121.567 29.706 123.703 27.162 123.703 23.178C123.703 19.482 121.711 16.674 118.447 16.674C116.767 16.674 115.567 17.418 114.727 18.522H114.655V17.034H110.911V33.38ZM117.343 26.683C115.663 26.683 114.703 25.315 114.703 23.323C114.703 21.331 115.567 19.819 117.271 19.819C118.951 19.819 119.743 21.211 119.743 23.323C119.743 25.411 118.831 26.683 117.343 26.683ZM130.072 29.707C133.288 29.707 135.664 28.315 135.664 25.627C135.664 22.483 133.12 21.931 130.96 21.571C129.4 21.283 128.008 21.163 128.008 20.299C128.008 19.531 128.752 19.171 129.712 19.171C130.792 19.171 131.536 19.507 131.68 20.611H135.28C135.088 18.187 133.216 16.675 129.736 16.675C126.832 16.675 124.432 18.019 124.432 20.611C124.432 23.491 126.712 24.067 128.848 24.427C130.48 24.715 131.968 24.835 131.968 25.939C131.968 26.731 131.224 27.163 130.048 27.163C128.752 27.163 127.936 26.563 127.792 25.339H124.096C124.216 28.051 126.472 29.707 130.072 29.707ZM140.978 29.683C142.682 29.683 143.762 29.011 144.65 27.811H144.722V29.323H148.466V17.035H144.554V23.9C144.554 25.364 143.738 26.372 142.394 26.372C141.146 26.372 140.546 25.628 140.546 24.284V17.036H136.658V25.1C136.658 27.836 138.146 29.683 140.978 29.683ZM150.168 29.323H154.08V22.435C154.08 20.971 154.8 19.939 156.024 19.939C157.2 19.939 157.752 20.707 157.752 22.027V29.323H161.664V22.435C161.664 20.971 162.36 19.939 163.608 19.939C164.784 19.939 165.336 20.707 165.336 22.027V29.323H169.248V21.331C169.248 18.571 167.856 16.675 165.072 16.675C163.488 16.675 162.168 17.347 161.208 18.835H161.16C160.536 17.515 159.312 16.675 157.704 16.675C155.928 16.675 154.752 17.515 153.984 18.787H153.912V17.035H150.168V29.323Z" fill="var(--fill-0, white)"/>
<path id="Vector_3" d="M0.101 20.323C0.101 9.278 9.056 0.323 20.101 0.323C31.147 0.323 40.101 9.278 40.101 20.323C40.101 31.369 31.147 40.323 20.101 40.323C9.056 40.323 0.101 31.369 0.101 20.323ZM23.188 15.776C24.437 14.527 24.811 12.649 24.135 11.018C23.46 9.386 21.868 8.322 20.101 8.322C18.335 8.322 16.743 9.386 16.068 11.018C15.392 12.649 15.766 14.527 17.015 15.776L20.101 18.863L23.188 15.776ZM24.648 23.41C25.897 24.659 27.775 25.032 29.406 24.357C31.038 23.681 32.101 22.089 32.101 20.323C32.101 18.557 31.038 16.965 29.406 16.289C27.775 15.614 25.897 15.987 24.648 17.236L21.562 20.323L24.648 23.41ZM23.188 31.045C24.893 29.34 24.893 26.576 23.188 24.871L20.101 21.784L17.015 24.871C15.361 26.584 15.385 29.307 17.068 30.991C18.752 32.675 21.475 32.699 23.188 31.045ZM15.554 23.41L18.641 20.323L15.554 17.236C13.843 15.566 11.108 15.583 9.417 17.273C7.727 18.964 7.71 21.699 9.38 23.41C11.085 25.115 13.849 25.115 15.554 23.41Z" fill="var(--fill-0, white)"/>
</g>
</svg>
