<svg preserveAspectRatio="none" width="100%" height="100%" overflow="visible" style="display: block;" viewBox="0 0 133 32" fill="none" xmlns="http://www.w3.org/2000/svg">
<g id="ss10355650289_1">
<g id="Vector">
</g>
<path id="Vector_2" d="M7.835 1.951V31.22H0V1.951H7.835ZM11.753 1.951H28.403C33.811 1.951 38.196 6.319 38.196 11.707C38.196 17.096 33.811 21.463 28.403 21.463H19.588V31.22H11.753V1.951ZM19.588 13.659H28.403C29.483 13.659 30.36 12.786 30.361 11.707C30.361 10.63 29.485 9.756 28.403 9.756H19.588V13.659ZM67.578 1.951V17.073C67.578 20.575 70.428 23.415 73.944 23.415C77.46 23.415 80.31 20.575 80.31 17.073V1.951H88.145V17.073C88.145 24.886 81.787 31.22 73.944 31.22C66.101 31.22 59.743 24.886 59.743 17.073V1.951H67.578Z" fill="var(--fill-0, white)"/>
<path id="Vector_3" d="M41.135 15.61C41.135 8.066 47.273 1.951 54.846 1.951H56.804V9.756H54.846C51.6 9.756 48.97 12.377 48.97 15.61V16.585C48.97 24.667 42.392 31.22 34.279 31.22H33.299V23.415H34.279C38.065 23.415 41.135 20.357 41.135 16.585V15.61Z" fill="var(--fill-0, white)"/>
<path id="Vector_4" d="M132.218 2.927C132.217 3.704 131.907 4.448 131.356 4.997C130.805 5.546 130.058 5.854 129.279 5.854C128.5 5.854 127.753 5.546 127.203 4.997C126.652 4.448 126.342 3.704 126.341 2.927C126.342 2.15 126.652 1.405 127.203 0.856C127.753 0.307 128.5 -0.001 129.279 0C130.058 -0.001 130.805 0.307 131.356 0.856C131.907 1.405 132.217 2.15 132.218 2.927ZM96.558 31.22L100.297 15.624L103.077 25.006C104.734 30.602 112.691 30.602 114.349 25.006L117.128 15.625L120.866 31.22H128.922L123.043 6.697C121.645 0.864 113.395 0.648 111.691 6.399L108.713 16.455L105.733 6.4C104.03 0.649 95.78 0.865 94.381 6.697L88.503 31.22H96.558Z" fill="var(--fill-0, white)"/>
</g>
</svg>
