<svg preserveAspectRatio="none" width="100%" height="100%" overflow="visible" style="display: block;" viewBox="0 0 168 41" fill="none" xmlns="http://www.w3.org/2000/svg">
<g id="ss11474052727_1">
<g id="Vector">
</g>
<path id="Vector_2" d="M49.278 28.952H61.23V25.352H53.526V11.792H49.278V28.952ZM68.31 26.552C66.607 26.552 65.719 25.064 65.719 22.832C65.719 20.6 66.607 19.088 68.311 19.088C70.015 19.088 70.927 20.6 70.927 22.832C70.927 25.064 70.014 26.552 68.31 26.552ZM68.335 29.336C72.295 29.336 74.887 26.528 74.887 22.832C74.887 19.136 72.295 16.328 68.335 16.328C64.399 16.328 61.759 19.136 61.759 22.832C61.759 26.528 64.399 29.336 68.335 29.336ZM81.741 33.2C83.565 33.2 85.173 32.792 86.253 31.832C87.237 30.944 87.885 29.6 87.885 27.752V16.664H84.141V17.984H84.093C83.373 16.952 82.269 16.304 80.637 16.304C77.589 16.304 75.477 18.848 75.477 22.448C75.477 26.216 78.045 28.28 80.805 28.28C82.293 28.28 83.229 27.68 83.949 26.864H84.045V28.088C84.045 29.576 83.349 30.44 81.693 30.44C80.397 30.44 79.749 29.888 79.533 29.24H75.741C76.125 31.808 78.357 33.2 81.741 33.2ZM81.717 25.376C80.253 25.376 79.293 24.176 79.293 22.328C79.293 20.456 80.253 19.256 81.717 19.256C83.349 19.256 84.213 20.648 84.213 22.304C84.213 24.032 83.421 25.376 81.717 25.376ZM95.584 26.552C93.879 26.552 92.991 25.064 92.991 22.832C92.991 20.6 93.879 19.088 95.584 19.088C97.287 19.088 98.199 20.6 98.199 22.832C98.199 25.064 97.287 26.552 95.584 26.552ZM95.607 29.336C99.567 29.336 102.159 26.528 102.159 22.832C102.159 19.136 99.567 16.328 95.607 16.328C91.671 16.328 89.031 19.136 89.031 22.832C89.031 26.528 91.671 29.336 95.607 29.336ZM103.302 28.952H107.214V16.664H103.302V28.952ZM103.302 14.96H107.214V11.792H103.302V14.96ZM108.911 33.008H112.823V27.68H112.871C113.639 28.712 114.767 29.336 116.351 29.336C119.567 29.336 121.703 26.792 121.703 22.808C121.703 19.112 119.711 16.304 116.447 16.304C114.767 16.304 113.567 17.048 112.727 18.152H112.655V16.664H108.911V33.008ZM115.343 26.312C113.663 26.312 112.703 24.944 112.703 22.952C112.703 20.96 113.567 19.448 115.271 19.448C116.951 19.448 117.743 20.84 117.743 22.952C117.743 25.04 116.831 26.312 115.343 26.312ZM128.072 29.336C131.288 29.336 133.664 27.944 133.664 25.256C133.664 22.112 131.12 21.56 128.96 21.2C127.4 20.912 126.008 20.792 126.008 19.928C126.008 19.16 126.752 18.8 127.712 18.8C128.792 18.8 129.536 19.136 129.68 20.24H133.28C133.088 17.816 131.216 16.304 127.736 16.304C124.832 16.304 122.432 17.648 122.432 20.24C122.432 23.12 124.712 23.696 126.848 24.056C128.48 24.344 129.968 24.464 129.968 25.568C129.968 26.36 129.224 26.792 128.048 26.792C126.752 26.792 125.936 26.192 125.792 24.968H122.096C122.216 27.68 124.472 29.336 128.072 29.336ZM138.978 29.312C140.682 29.312 141.762 28.64 142.65 27.44H142.722V28.952H146.466V16.664H142.554V23.528C142.554 24.992 141.738 26 140.394 26C139.146 26 138.546 25.256 138.546 23.912V16.664H134.658V24.728C134.658 27.464 136.146 29.312 138.978 29.312ZM148.168 28.952H152.08V22.064C152.08 20.6 152.8 19.568 154.024 19.568C155.2 19.568 155.752 20.336 155.752 21.656V28.952H159.664V22.064C159.664 20.6 160.36 19.568 161.608 19.568C162.784 19.568 163.336 20.336 163.336 21.656V28.952H167.248V20.96C167.248 18.2 165.856 16.304 163.072 16.304C161.488 16.304 160.168 16.976 159.208 18.464H159.16C158.536 17.144 157.312 16.304 155.704 16.304C153.928 16.304 152.752 17.144 151.984 18.416H151.912V16.664H148.168V28.952ZM25.41 1.977L21.477 0.923L18.163 13.293L15.17 2.125L11.237 3.18L14.47 15.246L6.417 7.193L3.538 10.073L12.371 18.905L1.371 15.957L0.317 19.89L12.336 23.11C11.578 19.842 12.901 16.443 15.67 14.548C18.439 12.653 22.087 12.651 24.859 14.542C27.63 16.432 28.959 19.83 28.205 23.099L39.128 26.025L40.181 22.092L28.115 18.859L39.115 15.911L38.062 11.978L25.996 15.211L34.048 7.159L31.169 4.279L22.459 12.989L25.41 1.977Z" fill="var(--fill-0, white)"/>
<path id="Vector_3" d="M28.194 23.144C27.862 24.546 27.162 25.834 26.168 26.877L34.081 34.79L36.961 31.91L28.194 23.144ZM26.088 26.96C25.086 27.985 23.83 28.727 22.449 29.111L25.329 39.857L29.262 38.803L26.088 26.96ZM22.303 29.15C21.638 29.321 20.955 29.407 20.269 29.406C19.535 29.407 18.805 29.308 18.097 29.113L15.215 39.87L19.148 40.924L22.303 29.15ZM17.958 29.074C16.596 28.67 15.364 27.917 14.383 26.89L6.451 34.823L9.33 37.703L17.958 29.074ZM14.317 26.82C13.348 25.785 12.667 24.514 12.342 23.134L1.383 26.07L2.437 30.003L14.317 26.82Z" fill="var(--fill-0, white)"/>
</g>
</svg>
